<mxfile host="app.diagrams.net" modified="2024-01-01T13:08:16.759Z" agent="Mozilla/5.0 (Macintosh; Intel Mac OS X 10_15_7) AppleWebKit/537.36 (KHTML, like Gecko) Chrome/120.0.0.0 Safari/537.36" version="22.1.15" etag="FG8qVXfJ7xhKX4TCqY6M" type="github">
  <diagram name="第 1 页" id="pDhz_SpMv1Izb27KMWn9">
    <mxGraphModel>
      <root>
        <mxCell id="0" />
        <mxCell id="1" parent="0" />
      </root>
    </mxGraphModel>
  </diagram>
</mxfile>
